<svg width="40" height="36" viewBox="0 0 40 36" fill="none" xmlns="http://www.w3.org/2000/svg">
<path d="M37.8473 8.17369C38.1042 7.30564 37.8473 6.66675 36.6112 6.66675H32.5209C31.4792 6.66675 31.0001 7.21536 30.7431 7.82647C30.7431 7.82647 28.6598 12.9029 25.7154 16.1945C24.764 17.1459 24.3265 17.4515 23.8056 17.4515C23.5487 17.4515 23.1529 17.1459 23.1529 16.2779V8.17369C23.1529 7.13203 22.8612 6.66675 22.0001 6.66675H15.5695C14.9167 6.66675 14.5279 7.15286 14.5279 7.60425C14.5279 8.59036 16.0001 8.81953 16.1529 11.5973V17.6251C16.1529 18.9445 15.9167 19.1876 15.3959 19.1876C14.007 19.1876 10.632 14.0904 8.63203 8.25703C8.22925 7.12508 7.83341 6.66675 6.7848 6.66675H2.69453C1.52786 6.66675 1.29175 7.21536 1.29175 7.82647C1.29175 8.9098 2.68064 14.2917 7.75703 21.4029C11.139 26.257 15.9029 28.889 20.2362 28.889C22.8404 28.889 23.1598 28.3056 23.1598 27.2987C23.1598 22.6598 22.9237 22.2223 24.2292 22.2223C24.8334 22.2223 25.8751 22.5279 28.3056 24.8681C31.0834 27.6459 31.5417 28.889 33.0973 28.889H37.1876C38.3542 28.889 38.9445 28.3056 38.6042 27.1529C37.8265 24.7292 32.5695 19.7431 32.3334 19.4098C31.7292 18.632 31.9029 18.2848 32.3334 17.5904C32.3404 17.5834 37.3334 10.5556 37.8473 8.17369Z" fill="white"/>
</svg>
